# xmcd
#
# Track frame offsets:
#	150
#	12182
#	24217
#	37685
#	51915
#	66270
#	81132
#	95160
#	109270
#	123545
#	137442
#	151770
#	165217
#	178940
#	192352
#	206082
#	218640
#	232147
#	245430
#	259117
#	271970
#	285592
#	300012
#	312132
#	324262
#
# Disc length: 4491 seconds
#
# Revision: 0
# Processed by: cddbd v1.5.2PL0 Copyright (c) Steve Scherf et al.
# Submitted via: EasyCDDAExtractor 2010.3.0.0
#
DISCID=4c118919
DTITLE=Autry Gene - That Silver Haired Daddy Of Mine Disc 4
DYEAR=1900
DGENRE=
TTITLE0=Death Of Mother Jones
TTITLE1=Death Of Mother Jones (Alt.)
TTITLE2=Bear Cat Papa Blues (Alt.#2)
TTITLE3=High Steppin' Mama
TTITLE4=High Steppin' Mama (Alt.)
TTITLE5=She Wouldn't Do It
TTITLE6=Don't Do Me That Way
TTITLE7=Don't Do Me That Way (Alt.)
TTITLE8=Hig Steppin' Mama Blues (Alt.#2)
TTITLE9=She Wouldn't Do It (Alt.)
TTITLE10=Do Right Daddy Blues (Alt.#2)
TTITLE11=T.B. Blues
TTITLE12=Jimmie The Kid
TTITLE13=Travelin' Blues
TTITLE14=There's A Good Gal In The Mountains
TTITLE15=There's A Good Gal In The Mountains (Alt.)
TTITLE16=She's A Low Down Mama
TTITLE17=She's A Low Down Mama (Alt.)
TTITLE18=She's A Low Down Mama (Alt.#2)
TTITLE19=Old Woman And The Cow
TTITLE20=Old Woman And The Cow (Alt.)
TTITLE21=Bear Cat Mama From Horner's Corners
TTITLE22=She's A Hum Dum Dinger
TTITLE23=Old Man Duff
TTITLE24=Old Man Duff (Alt.)
EXTD=
EXTT0=
EXTT1=
EXTT2=
EXTT3=
EXTT4=
EXTT5=
EXTT6=
EXTT7=
EXTT8=
EXTT9=
EXTT10=
EXTT11=
EXTT12=
EXTT13=
EXTT14=
EXTT15=
EXTT16=
EXTT17=
EXTT18=
EXTT19=
EXTT20=
EXTT21=
EXTT22=
EXTT23=
EXTT24=
PLAYORDER=
